<svg xmlns="http://www.w3.org/2000/svg" width="229.643" height="49.068" viewBox="0 0 229.643 49.068">
  <g id="Full_Logo_Light" data-name="Full Logo Light" transform="translate(-97 -76.382)">
    <path id="Path_5" data-name="Path 5" d="M17.115-21.172,14.666-22.2C11.092-23.767,7.223-25.58,7.223-29.6c0-3.134,2.3-5.876,6.611-5.876,4.358,0,7.205,5.536,9.36,8.034l1.56-6.368a24.187,24.187,0,0,0-10.284-2.448c-7.443,0-12.242,4.407-12.242,10.332,0,6.464,5.583,9.109,9.011,10.627l2.448,1.028c3.428,1.518,7.835,3.379,7.835,7.786,0,3.428-2.546,6.268-7.149,6.268-4.261,0-8.447-4.866-10.651-8.343L1.836-1.877A33.507,33.507,0,0,0,13.736.571c8.276,0,12.732-5.093,12.732-10.872,0-6.563-5.387-9.158-9.353-10.872Zm37.314-2.355a10.441,10.441,0,0,0-7.747-3.411,9.447,9.447,0,0,0-1.092.059c-3.127.4-5.263,2-7.281,4.018,0,0-2.838,3.045-5.824-.507H31.11V11.156h7.2V-1.625A10.126,10.126,0,0,0,44.823.582a12.906,12.906,0,0,0,3.983-.625,12.742,12.742,0,0,0,6.98-5.594,15.4,15.4,0,0,0,2.16-8.084,14.224,14.224,0,0,0-3.517-9.807ZM48.593-3.542c-1.08,2.136-2.667,3.293-4.7,3.293-2.691,0-4.7-2.059-5.582-5.045V-21.651a10.134,10.134,0,0,1,2.927-2.455.148.148,0,0,0,.041-.024,6.35,6.35,0,0,1,3-.755c3.676,0,6.024,3.086,6.024,11.707,0,4.136-.584,7.417-1.711,9.636ZM70.587-9.687a2.013,2.013,0,0,1,.283-.525,1.245,1.245,0,0,1,.112-.136A2.779,2.779,0,0,1,72.18-11,.046.046,0,0,1,72.2-11c3.511-1,11.394,1,14.167-4.29,1.947-3.7.23-7.736-4.425-10.184-.413-.212-.82-.4-1.221-.561a11.965,11.965,0,0,0-4.974-.891,2.984,2.984,0,0,0-.325-.012,14.438,14.438,0,0,0-3.334.378C66.132-25.2,61.659-20.136,61.659-12.79,61.659-4.565,67.188.58,74.245.58c5.092,0,8.762-2.7,11.553-6.957l-.584-.342c-2.3,3.133-5.145,4.408-7.789,4.408A6.963,6.963,0,0,1,70.84-6.677c0-.006-.006-.012-.006-.018-.035-.089-.065-.183-.094-.271a7.254,7.254,0,0,1-.195-.708,3.565,3.565,0,0,1,.006-1.9.624.624,0,0,1,.035-.112Zm-.7.124c-.047-.195-.089-.389-.118-.59-.047-.212-.083-.431-.112-.649a25.21,25.21,0,0,1-.26-3.753c0-6,1.729-10.019,4.632-11.252a5.128,5.128,0,0,1,2.03-.4c.006,0,.059,0,.142.006a1.29,1.29,0,0,1,.212.018.694.694,0,0,1,.112.012c1.269.142,5.027,1.015,4.4,6.26a5.877,5.877,0,0,1-.661,2.071c-1.6,3.045-4.856,3.706-7.405,4.661-.089.03-.177.065-.26.1s-.159.065-.236.1a3.809,3.809,0,0,0-2.478,3.416Zm37.824-17.452c-4.018,0-6.521,1.775-8.863,4.119,0,0-2.839,3.041-5.824-.507H91.647V-.079h7.2V-21.97c2.006-2.006,3.77-2.791,5.676-2.791,4.555,0,4.608,4.6,4.608,6.414V-.079h7.193V-17.656C116.323-24.076,113.19-27.015,107.708-27.015ZM147.757-8.2V-11.3l.005-19.095a7.133,7.133,0,0,0-1.727-4.77,7.391,7.391,0,0,0-5.477-2.458v12.834h0a10.079,10.079,0,0,0-6.513-2.154c-7.246,0-13.123,5.877-13.123,14.3,0,7.789,4.945,13.223,11.264,13.223,3.475,0,6.166-1.617,8.467-4.166L140.558,0h7.3c0-2.163-.1-5.855-.1-8.2Zm-7.2,3.446c-1.959,2.3-3.818,3.186-5.83,3.186-3.77,0-6.172-2.992-6.172-11.606,0-8.131,2.254-12.981,6.42-12.981,2.638,0,4.62,2.03,5.529,4.88.018.053.035.112.053.165ZM158.23-35.511a7.245,7.245,0,0,0-5.11-2.106H153.1V-.008h7.246v-30.6A7.144,7.144,0,0,0,158.23-35.511Zm25,9.158c-.1,3.186.708,7.736-2.13,14.4l-1.57,3.576L172.97-23.433a4.866,4.866,0,0,0-4.46-2.921h-4.6L175.715.582l-1.369,3.151a.079.079,0,0,0-.018.03l-.034.079a14.129,14.129,0,0,1-1.775,2.615c-.048.044-.1.09-.145.132l-.053.053c-1.882,1.994-4.484,2.9-7.653-.62l-.561,5.429a16.09,16.09,0,0,0,2.012-.124,11.853,11.853,0,0,0,2.3-.519,9.982,9.982,0,0,0,4.514-3.086,14.308,14.308,0,0,0,2.242-3.711l6.756-15.625c2.891-6.709,4.5-10.527,6.709-14.74h-5.41Z" transform="translate(138 114)" fill="#fff"/>
    <g id="Group_33" data-name="Group 33" transform="translate(-2571 246.509)">
      <path id="pexels-polina-zimmerman-3778619" d="M1.936,0H18.392a1.936,1.936,0,0,1,1.936,1.936v14.52a1.936,1.936,0,0,1-1.936,1.936H9.68A9.68,9.68,0,0,1,0,8.712V1.936A1.936,1.936,0,0,1,1.936,0Z" transform="translate(2668 -151.288)" fill="#e586bf"/>
      <path id="pexels-polina-zimmerman-3778619-2" data-name="pexels-polina-zimmerman-3778619" d="M1.936,0h8.712a9.68,9.68,0,0,1,9.68,9.68v6.776a1.936,1.936,0,0,1-1.936,1.936H1.936A1.936,1.936,0,0,1,0,16.456V1.936A1.936,1.936,0,0,1,1.936,0Z" transform="translate(2678.648 -160)" fill="#856bd9"/>
      <path id="Path_4" data-name="Path 4" d="M-2170.064,486.68a1.936,1.936,0,0,1-1.936-1.936V477h7.744a1.936,1.936,0,0,1,1.936,1.936v7.744Z" transform="translate(4850.648 -628.288)" fill="#7739a2"/>
    </g>
  </g>
</svg>
